<svg xmlns="http://www.w3.org/2000/svg" viewBox="0 0 24 24" fill="none">
  <path
    d="M10.325 4.317a1.724 1.724 0 0 1 3.35 0 1.724 1.724 0 0 0 2.573 1.066 1.724 1.724 0 0 1 2.9 1.675 1.724 1.724 0 0 0 .82 2.671 1.724 1.724 0 0 1 0 3.542 1.724 1.724 0 0 0-.82 2.67 1.724 1.724 0 0 1-2.9 1.676 1.724 1.724 0 0 0-2.573 1.066 1.724 1.724 0 0 1-3.35 0 1.724 1.724 0 0 0-2.572-1.066 1.724 1.724 0 0 1-2.9-1.675 1.724 1.724 0 0 0-.82-2.671 1.724 1.724 0 0 1 0-3.542 1.724 1.724 0 0 0 .82-2.67 1.724 1.724 0 0 1 2.9-1.676 1.724 1.724 0 0 0 2.572-1.066Z"
    stroke="currentColor"
    stroke-width="1.8"
  />
  <circle cx="12" cy="12" r="3.2" stroke="currentColor" stroke-width="1.8" />
</svg>
